<svg xmlns="http://www.w3.org/2000/svg" xmlns:xlink="http://www.w3.org/1999/xlink" viewBox="0 0 1158 1127.36"><defs><style>.cls-1{fill:url(#Degradado_sin_nombre_24);}.cls-2{fill:#fff;}</style><linearGradient id="Degradado_sin_nombre_24" x1="4" y1="569.01" x2="1091.43" y2="569.01" gradientUnits="userSpaceOnUse"><stop offset="0" stop-color="#c9a75f"/><stop offset="0.27" stop-color="#91784f"/><stop offset="0.34" stop-color="#9a8052"/><stop offset="0.45" stop-color="#b39559"/><stop offset="0.53" stop-color="#c9a75f"/><stop offset="0.61" stop-color="#dbba7a"/><stop offset="0.7" stop-color="#eac991"/><stop offset="0.78" stop-color="#f3d39e"/><stop offset="0.85" stop-color="#f6d6a3"/></linearGradient></defs><g id="Capa_2" data-name="Capa 2"><g id="Capa_1-2" data-name="Capa 1"><circle class="cls-1" cx="547.71" cy="569.01" r="543.71"/><path class="cls-2" d="M579,0C259.23,0,0,252.37,0,563.68c0,126.81,43,243.84,115.62,338q48.88-.53,99-2.22,66.72-2.31,130.82-6.55c106.82-4.18,186.17-34.57,209.32-68.68,20.09-29.59,19.63-62.14,19.63-62.14a116.27,116.27,0,0,0-6.55-39.25A118.65,118.65,0,0,0,545,683.62a220.47,220.47,0,0,1-19.62-29.44c-9.68-17.4-32.81-59-26.76-111.66a158.7,158.7,0,0,1,18.87-58.38l1.84,28.59a176.39,176.39,0,0,0,24.33,81.5c4.65,7.8,15,22.32,29.79,37.09,6.1,6.08,7.88,7.1,14.07,13a240.55,240.55,0,0,1,32.7,39.25,220.91,220.91,0,0,1,16.36,29.43c3.37,7.35,17,38.26,19.62,81.77.53,8.83,2.31,48.13-13.08,94.84-9.29,28.2-21.59,49-29.44,62.14-7.29,12.27-18.28,28.92-21.84,32.15,0,0,0,0-.07.07a0,0,0,0,1,0,0l5.59-9.35c2.31-3.26,20.21-29.32,9.81-52.33a36.78,36.78,0,0,0-6.54-9.81,22.6,22.6,0,0,0-9.81-3.27c-7.4-.61-13.64,2.91-22.9,9.81-10.2,7.61-14.52,12.19-20.63,17.43C484.56,990.27,352,992.07,352,992.07c-27.25.6-48.61-5.2-52.43-16.36a16.19,16.19,0,0,1,.11-10.82c3.63-8.46,15.29-9.72,16.35-9.81,21.56-5.05,27.86-11.36,29.43-16.36.95-3,3-11.11,3.14-11.81,0,.09-.1.31-.19.69-3.57-41.21-166.54,21.49-166.54,21.49q-10,3.27-19.36,6.18c105.28,106.11,253,172.09,416.46,172.09,319.78,0,579-252.37,579-563.68S898.78,0,579,0ZM520.65,211a41,41,0,0,1,20.88-20c3.22-1.32,13.87-5.52,26.36-1.27,2.62.89,14.24,5.2,19.63,16.36,4.32,9,3.49,20,3.27,22.89-.28,3.73-1,7.52,0,13.08a36.22,36.22,0,0,0,3.27,9.82,59.16,59.16,0,0,0,6.33,9C617.3,280.7,642.86,284,653.46,284.7c-62.86,12.77-115.61,1-130.17-28C510.51,231.34,520.65,211,520.65,211ZM724.88,749c-4.76,63-40.55,108.16-56.93,126.46A228.72,228.72,0,0,0,682.37,785c-1.61-35.15-11.77-68.66-22.9-88.3-8.92-15.75-19.16-27.76-26.16-36-9-10.58-11.72-12.2-42.52-42.52-22.95-22.59-28.95-29.07-36-39.24a146.8,146.8,0,0,1-16.35-29.44,134.54,134.54,0,0,1-10-48.36c0-1.54,0-2.81,0-3.65a187.58,187.58,0,0,0,36.17,58.55c17.26,18.86,35.16,30.41,49.06,39.25,11.89,7.56,22.18,10.78,46.75,25.09,14.13,8.23,17.82,11,19.39,12.17a130.58,130.58,0,0,1,32,38C728.16,700.66,726.2,731.6,724.88,749ZM770.4,636A199.43,199.43,0,0,0,756,654.53a659.22,659.22,0,0,1-84-43.8c-26.53-16.39-66.68-41.56-108.27-85.16-25.44-26.67-41.48-49.16-52.32-69.35-10.69-19.9-17.75-33-21.54-53.21-2.46-13.08-8.79-46.75,9.38-72.09a56.53,56.53,0,0,1,22.91-19.57A54.32,54.32,0,0,1,543,306.58c5,.08,12.43.94,19.35,5.33,21,13.31,25.88,53.35,16.4,83.48a93.86,93.86,0,0,1-12.63,25.55c12.57-23.2,11.2-45.72,0-54.44-6.06-4.72-17.64-6.61-25.55-1.52-6.37,4.1-8.4,11.11-9.73,15.82a41.93,41.93,0,0,0,1.22,25.54,122.07,122.07,0,0,0,18.24,35.28,197.3,197.3,0,0,0,18.25,19.47,203.3,203.3,0,0,0,107.69,51.57c59.72,8.78,105.39-12,121-19.94l-57.7,71.14-1.3,1.74c8.82,2.48,15.72,4,20.07,5a360.38,360.38,0,0,0,97.33,7.3C831.17,587.21,798.27,604.23,770.4,636Z"/></g></g></svg>