<svg xmlns="http://www.w3.org/2000/svg" viewBox="0 0 849.4 292.27"><defs><style>.cls-1{fill:#ce798e;}.cls-2{fill:#222953;}.cls-3{fill:none;stroke:#222a54;stroke-miterlimit:10;stroke-width:2px;}</style></defs><g id="Capa_2" data-name="Capa 2"><g id="LOGO_1" data-name="LOGO 1"><path class="cls-1" d="M808.21,135V118.62c0-18.7-7.3-40.9-29.8-40.9-10.22,0-29.8,5-29.8,17.82,0,4.09,1.46,8.18,1.46,12.27,0,7.6-3.79,10.81-11.1,10.81-6.72,0-10.22-5.26-10.22-11.39,0-19.58,35.93-33,52.29-33,30.68,0,43.53,15.49,43.53,45.29v73.91c0,8.76,2.92,18.11,13.44,18.11a18.13,18.13,0,0,0,11.39-4.09c-2.33,7.6-13.14,13.73-20.74,13.73-17.53,0-20.45-13.15-20.45-27.75V140c-25.71,7.88-65.73,13.43-65.73,48.2,0,16.36,11.39,26.29,27.46,26.29,11.69,0,23.37-2.92,33-9.64-12,12-26,16.36-42.94,16.36-19.28,0-38-10.22-38-31.55C722,142.57,795.36,147,808.21,135Z"/><path class="cls-1" d="M105.25,267.5v3.68H99.08v20.24H95.27V271.18h-6V267.5Z"/><path class="cls-1" d="M139.61,291.42l-5.38-8.31h-3.85v8.31h-3.84V267.5h6.73a9.63,9.63,0,0,1,6.43,2,7,7,0,0,1,2.41,5.65,9,9,0,0,1-.94,4.09,6.38,6.38,0,0,1-2.94,2.91l5.82,9.23Zm-9.23-12h3.42a4,4,0,0,0,3.33-1.27,4.37,4.37,0,0,0,1-2.84,4.61,4.61,0,0,0-.4-1.85,3.73,3.73,0,0,0-1.34-1.61,4.25,4.25,0,0,0-2.5-.68h-3.55Z"/><path class="cls-1" d="M177.26,285.8h-8.7l-2.3,5.62h-3.78l10.58-24.9h.23l10.57,24.9h-4.4ZM176,282.52,173,275l-3.09,7.56Z"/><path class="cls-1" d="M204.36,267.5h6.8a14.13,14.13,0,0,1,7.44,1.78,10.78,10.78,0,0,1,4.29,4.56,13.54,13.54,0,0,1,1.35,6,11.53,11.53,0,0,1-1.63,6.13,11.05,11.05,0,0,1-4.35,4.07,12.66,12.66,0,0,1-5.95,1.43h-7.95Zm7.26,20.24a10.26,10.26,0,0,0,4.52-.95,7.08,7.08,0,0,0,3.05-2.81,8.52,8.52,0,0,0,1.1-4.45,8.72,8.72,0,0,0-1.19-4.72A7.32,7.32,0,0,0,216,272a8.8,8.8,0,0,0-3.83-.89h-4v16.59Z"/><path class="cls-1" d="M249.63,267.5v23.92h-3.84V267.5Z"/><path class="cls-1" d="M287.46,291a11.57,11.57,0,0,1-4.06.69,12.63,12.63,0,0,1-6.49-1.62,11.27,11.27,0,0,1-4.27-4.37,12.36,12.36,0,0,1-1.49-6,13.47,13.47,0,0,1,1.49-6.41,11.17,11.17,0,0,1,4.17-4.42,11.73,11.73,0,0,1,6.1-1.59,13.11,13.11,0,0,1,3.89.56,13.76,13.76,0,0,1,3.17,1.41l-1.51,3.58a9.33,9.33,0,0,0-5.42-1.87,7.38,7.38,0,0,0-3.93,1.13,8.48,8.48,0,0,0-2.91,3.09,8.71,8.71,0,0,0-1.08,4.29,9.55,9.55,0,0,0,1,4.42,7.38,7.38,0,0,0,2.86,3,8.2,8.2,0,0,0,4.29,1.1,8.82,8.82,0,0,0,3.13-.52,7.63,7.63,0,0,0,2.35-1.35l1.61,3.42A12.78,12.78,0,0,1,287.46,291Z"/><path class="cls-1" d="M315.72,267.5v23.92h-3.84V267.5Z"/><path class="cls-1" d="M338.88,273.4a12.49,12.49,0,0,1,4.45-4.48,12,12,0,0,1,12.22,0,12.57,12.57,0,0,1,4.49,4.5,12,12,0,0,1,0,12.18,12.31,12.31,0,0,1-4.48,4.44,12.3,12.3,0,0,1-12.24,0,12.25,12.25,0,0,1-4.45-4.42,12.24,12.24,0,0,1,0-12.24Zm3.42,10.36a8.34,8.34,0,0,0,3,3.09,8,8,0,0,0,4.22,1.15,7.9,7.9,0,0,0,4.14-1.13,8.31,8.31,0,0,0,3-3.09,8.62,8.62,0,0,0,1.1-4.29,8.64,8.64,0,0,0-4.14-7.42,8.17,8.17,0,0,0-8.36,0,8.45,8.45,0,0,0-3,3.12,8.71,8.71,0,0,0-1.1,4.3A8.33,8.33,0,0,0,342.3,283.76Z"/><path class="cls-1" d="M404.35,267.5v24.77h-.09L387,275.55l.1,15.87h-3.88V266.68h.2l17.18,16.92-.07-16.1Z"/><path class="cls-1" d="M439.67,285.8H431l-2.3,5.62h-3.78l10.58-24.9h.23l10.58,24.9h-4.4Zm-1.28-3.28-3-7.56-3.09,7.56Z"/><path class="cls-1" d="M470.61,267.5v20.24h11.8v3.68H466.77V267.5Z"/><path class="cls-1" d="M530.83,267.5h6.8a14.13,14.13,0,0,1,7.44,1.78,10.69,10.69,0,0,1,4.28,4.56,13.54,13.54,0,0,1,1.35,6,11.44,11.44,0,0,1-1.63,6.13,11,11,0,0,1-4.35,4.07,12.65,12.65,0,0,1-5.94,1.43h-7.95Zm7.26,20.24a10.24,10.24,0,0,0,4.51-.95,7.11,7.11,0,0,0,3.06-2.81,9.72,9.72,0,0,0-.1-9.17,7.35,7.35,0,0,0-3-2.77,8.84,8.84,0,0,0-3.83-.89h-4v16.59Z"/><path class="cls-1" d="M588.12,267.5v3.68h-12v6.38H586.8v3.67H576.09v6.51h12.49v3.68H572.25V267.5Z"/><path class="cls-1" d="M617.35,270.76a4.54,4.54,0,0,0-2.8.78,2.59,2.59,0,0,0-1,2.17,2.66,2.66,0,0,0,1.3,2.25,17,17,0,0,0,3.63,1.79,15.67,15.67,0,0,1,3,1.43,6.43,6.43,0,0,1,2.08,2.19,6.69,6.69,0,0,1,.82,3.48,6.4,6.4,0,0,1-1,3.45,6.64,6.64,0,0,1-2.76,2.46,9.34,9.34,0,0,1-4.27.92,13.9,13.9,0,0,1-4.27-.67,13.22,13.22,0,0,1-3.74-1.86l1.7-3a10.91,10.91,0,0,0,2.88,1.53,8.85,8.85,0,0,0,3.07.61,5.58,5.58,0,0,0,3.06-.84,3.08,3.08,0,0,0,.21-4.88,11,11,0,0,0-3.07-1.67,27.12,27.12,0,0,1-3.39-1.5,7,7,0,0,1-2.31-2.07,5.49,5.49,0,0,1-1-3.33,6,6,0,0,1,2-4.72,8.06,8.06,0,0,1,5.24-1.92,14.4,14.4,0,0,1,4.15.54,13.16,13.16,0,0,1,3.34,1.53l-1.45,2.92A12.19,12.19,0,0,0,617.35,270.76Z"/><path class="cls-1" d="M649.68,267.5v23.92h-3.85V267.5Z"/><path class="cls-1" d="M688.26,290.91a15.16,15.16,0,0,1-4.48.77,14,14,0,0,1-6.64-1.51,10.84,10.84,0,0,1-4.4-4.16,11.65,11.65,0,0,1-1.55-6,13.78,13.78,0,0,1,1.66-6.93,11,11,0,0,1,4.47-4.37,13,13,0,0,1,6.16-1.48,15.67,15.67,0,0,1,3.93.48,13.83,13.83,0,0,1,3.27,1.26l-1.25,3.55a10.52,10.52,0,0,0-2.62-1,11.6,11.6,0,0,0-2.84-.43,9,9,0,0,0-6.47,2.27,8.4,8.4,0,0,0-2.36,6.34,8.2,8.2,0,0,0,1.1,4.29,7.39,7.39,0,0,0,3.09,2.87,9.81,9.81,0,0,0,4.55,1,11.25,11.25,0,0,0,2.2-.21,6.32,6.32,0,0,0,1.77-.61v-4h-4.5V279.4h8.34v9.82A9.17,9.17,0,0,1,688.26,290.91Z"/><path class="cls-1" d="M735.06,267.5v24.77H735l-17.25-16.72.1,15.87h-3.88V266.68h.2l17.18,16.92-.06-16.1Z"/><path class="cls-1" d="M105.25,267.5v3.68H99.08v20.24H95.27V271.18h-6V267.5Z"/><path class="cls-1" d="M139.61,291.42l-5.38-8.31h-3.85v8.31h-3.84V267.5h6.73a9.63,9.63,0,0,1,6.43,2,7,7,0,0,1,2.41,5.65,9,9,0,0,1-.94,4.09,6.38,6.38,0,0,1-2.94,2.91l5.82,9.23Zm-9.23-12h3.42a4,4,0,0,0,3.33-1.27,4.37,4.37,0,0,0,1-2.84,4.61,4.61,0,0,0-.4-1.85,3.73,3.73,0,0,0-1.34-1.61,4.25,4.25,0,0,0-2.5-.68h-3.55Z"/><path class="cls-1" d="M177.26,285.8h-8.7l-2.3,5.62h-3.78l10.58-24.9h.23l10.57,24.9h-4.4ZM176,282.52,173,275l-3.09,7.56Z"/><path class="cls-1" d="M204.36,267.5h6.8a14.13,14.13,0,0,1,7.44,1.78,10.78,10.78,0,0,1,4.29,4.56,13.54,13.54,0,0,1,1.35,6,11.53,11.53,0,0,1-1.63,6.13,11.05,11.05,0,0,1-4.35,4.07,12.66,12.66,0,0,1-5.95,1.43h-7.95Zm7.26,20.24a10.26,10.26,0,0,0,4.52-.95,7.08,7.08,0,0,0,3.05-2.81,8.52,8.52,0,0,0,1.1-4.45,8.72,8.72,0,0,0-1.19-4.72A7.32,7.32,0,0,0,216,272a8.8,8.8,0,0,0-3.83-.89h-4v16.59Z"/><path class="cls-1" d="M249.63,267.5v23.92h-3.84V267.5Z"/><path class="cls-1" d="M287.46,291a11.57,11.57,0,0,1-4.06.69,12.63,12.63,0,0,1-6.49-1.62,11.27,11.27,0,0,1-4.27-4.37,12.36,12.36,0,0,1-1.49-6,13.47,13.47,0,0,1,1.49-6.41,11.17,11.17,0,0,1,4.17-4.42,11.73,11.73,0,0,1,6.1-1.59,13.11,13.11,0,0,1,3.89.56,13.76,13.76,0,0,1,3.17,1.41l-1.51,3.58a9.33,9.33,0,0,0-5.42-1.87,7.38,7.38,0,0,0-3.93,1.13,8.48,8.48,0,0,0-2.91,3.09,8.71,8.71,0,0,0-1.08,4.29,9.55,9.55,0,0,0,1,4.42,7.38,7.38,0,0,0,2.86,3,8.2,8.2,0,0,0,4.29,1.1,8.82,8.82,0,0,0,3.13-.52,7.63,7.63,0,0,0,2.35-1.35l1.61,3.42A12.78,12.78,0,0,1,287.46,291Z"/><path class="cls-1" d="M315.72,267.5v23.92h-3.84V267.5Z"/><path class="cls-1" d="M338.88,273.4a12.49,12.49,0,0,1,4.45-4.48,12,12,0,0,1,12.22,0,12.57,12.57,0,0,1,4.49,4.5,12,12,0,0,1,0,12.18,12.31,12.31,0,0,1-4.48,4.44,12.3,12.3,0,0,1-12.24,0,12.25,12.25,0,0,1-4.45-4.42,12.24,12.24,0,0,1,0-12.24Zm3.42,10.36a8.34,8.34,0,0,0,3,3.09,8,8,0,0,0,4.22,1.15,7.9,7.9,0,0,0,4.14-1.13,8.31,8.31,0,0,0,3-3.09,8.62,8.62,0,0,0,1.1-4.29,8.64,8.64,0,0,0-4.14-7.42,8.17,8.17,0,0,0-8.36,0,8.45,8.45,0,0,0-3,3.12,8.71,8.71,0,0,0-1.1,4.3A8.33,8.33,0,0,0,342.3,283.76Z"/><path class="cls-1" d="M404.35,267.5v24.77h-.09L387,275.55l.1,15.87h-3.88V266.68h.2l17.18,16.92-.07-16.1Z"/><path class="cls-1" d="M439.67,285.8H431l-2.3,5.62h-3.78l10.58-24.9h.23l10.58,24.9h-4.4Zm-1.28-3.28-3-7.56-3.09,7.56Z"/><path class="cls-1" d="M470.61,267.5v20.24h11.8v3.68H466.77V267.5Z"/><path class="cls-1" d="M530.83,267.5h6.8a14.13,14.13,0,0,1,7.44,1.78,10.69,10.69,0,0,1,4.28,4.56,13.54,13.54,0,0,1,1.35,6,11.44,11.44,0,0,1-1.63,6.13,11,11,0,0,1-4.35,4.07,12.65,12.65,0,0,1-5.94,1.43h-7.95Zm7.26,20.24a10.24,10.24,0,0,0,4.51-.95,7.11,7.11,0,0,0,3.06-2.81,9.72,9.72,0,0,0-.1-9.17,7.35,7.35,0,0,0-3-2.77,8.84,8.84,0,0,0-3.83-.89h-4v16.59Z"/><path class="cls-1" d="M588.12,267.5v3.68h-12v6.38H586.8v3.67H576.09v6.51h12.49v3.68H572.25V267.5Z"/><path class="cls-1" d="M617.35,270.76a4.54,4.54,0,0,0-2.8.78,2.59,2.59,0,0,0-1,2.17,2.66,2.66,0,0,0,1.3,2.25,17,17,0,0,0,3.63,1.79,15.67,15.67,0,0,1,3,1.43,6.43,6.43,0,0,1,2.08,2.19,6.69,6.69,0,0,1,.82,3.48,6.4,6.4,0,0,1-1,3.45,6.64,6.64,0,0,1-2.76,2.46,9.34,9.34,0,0,1-4.27.92,13.9,13.9,0,0,1-4.27-.67,13.22,13.22,0,0,1-3.74-1.86l1.7-3a10.91,10.91,0,0,0,2.88,1.53,8.85,8.85,0,0,0,3.07.61,5.58,5.58,0,0,0,3.06-.84,3.08,3.08,0,0,0,.21-4.88,11,11,0,0,0-3.07-1.67,27.12,27.12,0,0,1-3.39-1.5,7,7,0,0,1-2.31-2.07,5.49,5.49,0,0,1-1-3.33,6,6,0,0,1,2-4.72,8.06,8.06,0,0,1,5.24-1.92,14.4,14.4,0,0,1,4.15.54,13.16,13.16,0,0,1,3.34,1.53l-1.45,2.92A12.19,12.19,0,0,0,617.35,270.76Z"/><path class="cls-1" d="M649.68,267.5v23.92h-3.85V267.5Z"/><path class="cls-1" d="M688.26,290.91a15.16,15.16,0,0,1-4.48.77,14,14,0,0,1-6.64-1.51,10.84,10.84,0,0,1-4.4-4.16,11.65,11.65,0,0,1-1.55-6,13.78,13.78,0,0,1,1.66-6.93,11,11,0,0,1,4.47-4.37,13,13,0,0,1,6.16-1.48,15.67,15.67,0,0,1,3.93.48,13.83,13.83,0,0,1,3.27,1.26l-1.25,3.55a10.52,10.52,0,0,0-2.62-1,11.6,11.6,0,0,0-2.84-.43,9,9,0,0,0-6.47,2.27,8.4,8.4,0,0,0-2.36,6.34,8.2,8.2,0,0,0,1.1,4.29,7.39,7.39,0,0,0,3.09,2.87,9.81,9.81,0,0,0,4.55,1,11.25,11.25,0,0,0,2.2-.21,6.32,6.32,0,0,0,1.77-.61v-4h-4.5V279.4h8.34v9.82A9.17,9.17,0,0,1,688.26,290.91Z"/><path class="cls-1" d="M735.06,267.5v24.77H735l-17.25-16.72.1,15.87h-3.88V266.68h.2l17.18,16.92-.06-16.1Z"/><path class="cls-1" d="M217.94,194.19c0-15.2-.64-22.79,0-38.62.46-11.56,0-23.14,0-34.7V109.65a208.37,208.37,0,0,1-19.29,12.07c0,15.88-.11,39.43-.28,72.47.18,1.52,1,11.53-6,18.77a19.58,19.58,0,0,1-8.28,4.9H232C220.86,214.35,217.94,204.71,217.94,194.19ZM116.86,217.57l10.51-24.7-2-3.93-.08-.16-.63-1.29L39.44,13.36H0C11.4,16.86,21,25,21,37.9v154c0,13.73-8.47,21.91-21,26H45.58c-12.56-4.09-21.33-12-21.33-26V27.09Z"/><path class="cls-1" d="M267.78,185.23c0-33.89,59.3-47,85-50.83V118.91c0-18.7-6.72-41.19-29.5-41.19-10.52,0-29.8,5-29.8,18.11,0,4.09,1.46,7.89,1.46,12.27,0,7-4.09,10.81-11.1,10.81-6.72,0-10.23-5.55-10.23-11.68,0-19.87,35.94-32.72,52.29-32.72,39.44,0,43.24,22.49,43.24,56.09,17.53-4.38,34.77-9.94,50.54-19,0-6.14-1.17-18.41-9.64-18.41l26.3-18.4v26.29c12.85-9.64,26.87-26.58,44.4-26.58,6.14,0,12,2.62,12,9.34,0,7-4.09,10.23-10.81,10.23-6.43,0-9.06-5.26-17.82-5.26-5.26,0-12,3.21-16.07,6.72-30.09,26-63.1,35.06-101.08,43.24-25.13,5.55-58.72,14.31-58.72,46.16,0,18.11,12,29.5,29.8,29.5,12,0,21.62-5,31.26-11.39-9.94,12.56-25.13,18.11-40.9,18.11C286.48,221.16,267.78,208.89,267.78,185.23Zm85-41.49c5.55-1.46,10.81-2.63,16.36-3.79v53.17c0,9,3.22,18.11,13.73,18.11,4.09,0,8.18-.88,11.1-3.8-2,7.3-13.14,13.73-20.45,13.73-17.52,0-20.74-13.15-20.74-28Zm52.88,76.84c11.39-4.09,14-12.86,14-24V122.13c4.09-2,13.15-7.89,16.66-11.11v85.6c0,11.39,2.92,19,13.73,24Z"/><path class="cls-1" d="M513.76,220.58c11.1-3.51,14-13.15,14-24V111c0-6.13-1.17-18.11-9.64-18.11l26.29-18.4V196.62c0,10.81,3.21,20.45,14,24ZM523.1,39.45c0-7,5-11.69,12-11.69s11.69,4.68,11.69,11.69-4.68,11.68-11.69,11.68S523.1,46.46,523.1,39.45Z"/><path class="cls-1" d="M639.08,217.66c16.65,0,43.53-3.8,43.53-25.71,0-37.4-93.78-28.92-93.78-78.3,0-26.87,23.37-40.9,47.91-40.9,11.4,0,38.86,5.55,49.38,10.23v27.46C679.4,89.7,656.9,75.38,635.58,75.38c-14.9,0-36.23,8.47-36.23,26,0,42.66,94.07,32.43,94.07,80.05,0,30.09-26,40.61-52,40.61-16.95,0-38.27-3.8-54.63-8.77V178.51C595.26,200.71,614.54,217.66,639.08,217.66Z"/><path class="cls-2" d="M260.46,50.88c-3.87,4.74-7.6,9.42-11.45,14-11.06,13.23-23.91,24.54-37.57,35A223.08,223.08,0,0,1,177,121.6c-3.13,1.59-6.33,3-9.5,4.55-.17.08-.36.13-.74.27.12-1.56.2-3,.34-4.38a348,348,0,0,1,15.07-71c1.35-4.26,2.86-8.47,4.37-12.68A2.75,2.75,0,0,1,188,36.93a78.35,78.35,0,0,1,20.6-5.23,62.87,62.87,0,0,1,30.65,3.39A48.94,48.94,0,0,1,260.14,50.4,3.64,3.64,0,0,1,260.46,50.88Z"/><path class="cls-2" d="M141.55,1.06A47.47,47.47,0,0,1,153,0c9.4.22,17.65,3.65,25.24,9a218.7,218.7,0,0,1,23.17,19.37,1.19,1.19,0,0,1,.18.29c-2.28.87-4.59,1.61-6.78,2.61-3,1.35-5.88,2.88-8.78,4.39a2.3,2.3,0,0,0-.95,1.13,280.67,280.67,0,0,0-15.63,54.59c-2.07,11.66-3.43,23.4-4.36,35.51-.42-.49-.68-.78-.93-1.1-8.51-10.61-13.7-22.8-17-35.88a182.11,182.11,0,0,1-5.06-32.64c-.59-9-1.09-18-1.19-26.94-.11-9.43.3-18.86.5-28.28A9.79,9.79,0,0,1,141.55,1.06Z"/><path class="cls-2" d="M235.42,28.28c-1.18-.23-2.09-.42-3-.59a71.34,71.34,0,0,0-26.22.06,1.75,1.75,0,0,1-1.4-.46,146.83,146.83,0,0,0-26.6-23.55l-1.29-.89c1.8-.32,3.3-.67,4.81-.84a51.65,51.65,0,0,1,22.67,2.63,61.71,61.71,0,0,1,30.45,22.71C235,27.57,235.12,27.8,235.42,28.28Z"/><path class="cls-3" d="M165.49,133c-.15.46-.28.93-.44,1.4-1.19,3.82-2.65,8-4.45,12.43l0,.07a163,163,0,0,1-10,20.5c-2.42,4.18-4.92,8.06-7.43,11.65h0c-.29.42-.58.82-.87,1.23,0,0,0,0,0,.06-2.84,4-5.68,7.62-8.45,10.89l-.11.14c-1,1.15-2,2.25-2.9,3.32h0q-1.69,1.91-3.35,3.62l0,0-1.64,1.7"/><line class="cls-3" x1="155.14" y1="133.11" x2="159.71" y2="149.65"/><line class="cls-3" x1="171.75" y1="139.14" x2="161.11" y2="145.56"/><line class="cls-3" x1="149.89" y1="146.62" x2="152.88" y2="163.71"/><path class="cls-3" d="M160,170.49c-2.45,1.32-5.19,2.65-8.21,3.91-2.57,1.08-5,2-7.34,2.72"/><line class="cls-3" x1="167.14" y1="153.56" x2="154.12" y2="161.11"/><line class="cls-3" x1="129.69" y1="175.71" x2="132.69" y2="192.79"/><line class="cls-3" x1="138.93" y1="163.88" x2="141.93" y2="180.96"/><path class="cls-3" d="M150.92,187.72c-2.68.74-5.65,1.43-8.87,2-2.75.48-5.35.81-7.76,1"/></g></g></svg>