<svg xmlns="http://www.w3.org/2000/svg" viewBox="0 0 955.28 955.28"><defs><style>.cls-1{fill:#fff;stroke:#ce798e;stroke-width:30px;}.cls-1,.cls-3{stroke-miterlimit:10;}.cls-2{fill:#ce798e;}.cls-3{fill:none;stroke:#222a54;stroke-width:3px;}.cls-4{fill:#222953;}</style></defs><g id="Capa_2" data-name="Capa 2"><g id="ICONO_1" data-name="ICONO 1"><circle class="cls-1" cx="477.64" cy="477.64" r="462.64"/><path class="cls-2" d="M646.94,637.41c0-28.32-1.19-42.46,0-72,.85-21.54,0-43.11,0-64.65V479.9A388.14,388.14,0,0,1,611,502.38c0,29.59-.21,73.47-.52,135,.33,2.83,1.95,21.48-11.26,35a36.44,36.44,0,0,1-15.42,9.13h89.26C652.38,675,646.94,657,646.94,637.41ZM458.61,681l19.58-46-3.8-7.32-.15-.3-1.17-2.41L314.36,300.49H240.88c21.24,6.52,39.2,21.76,39.2,45.72V633.07c0,25.58-15.78,40.82-39.2,48.44H325.8c-23.4-7.62-39.74-22.32-39.74-48.44v-307Z"/><g id="RAMO"><path class="cls-3" d="M549.51,517.94c-.26.86-.5,1.73-.78,2.63-2.13,7.13-4.77,14.94-8,23.23l-.07.15a302.34,302.34,0,0,1-18.24,38.4c-4.42,7.84-9,15.11-13.58,21.85l0,0v0l-1.59,2.29a.43.43,0,0,1-.09.13c-5.2,7.51-10.43,14.31-15.51,20.46l-.21.26c-1.79,2.17-3.57,4.24-5.33,6.25v0c-2.1,2.38-4.16,4.66-6.17,6.81,0,0,0,0,0,.06-1,1.09-2,2.16-3,3.2"/><line class="cls-3" x1="530.25" y1="518.36" x2="539.1" y2="549.09"/><line class="cls-3" x1="561.32" y1="529.25" x2="541.64" y2="541.43"/><line class="cls-3" x1="520.74" y1="543.65" x2="526.69" y2="575.42"/><path class="cls-3" d="M540.15,587.91c-4.54,2.51-9.61,5-15.21,7.46-4.77,2.06-9.34,3.77-13.62,5.21"/><line class="cls-3" x1="553.04" y1="556.22" x2="528.94" y2="570.56"/><line class="cls-3" x1="483.73" y1="598.27" x2="489.68" y2="630.04"/><line class="cls-3" x1="500.7" y1="576.03" x2="506.65" y2="607.8"/><path class="cls-3" d="M523.54,620.19c-5,1.44-10.49,2.79-16.49,3.91-5.1.95-9.93,1.61-14.43,2.06"/></g><path class="cls-4" d="M726.17,370.39C719,379.23,712,388,704.83,396.52c-20.61,24.64-44.56,45.73-70,65.18a416.42,416.42,0,0,1-64.12,40.46c-5.83,3-11.8,5.66-17.7,8.48-.32.15-.67.25-1.38.5.23-2.9.38-5.53.64-8.15,4.49-45.13,14.36-89.11,28.07-132.28,2.52-7.93,5.32-15.78,8.15-23.62a5.23,5.23,0,0,1,2.57-2.69c12.28-5.23,25.23-8,38.39-9.74a117.14,117.14,0,0,1,57.1,6.31c15.68,5.85,28.47,15.67,39,28.53C725.8,369.78,726,370.11,726.17,370.39Z"/><path class="cls-4" d="M504.61,277.58A89.21,89.21,0,0,1,526,275.63c17.5.42,32.87,6.81,47,16.74,15.4,10.82,29.42,23.28,43.16,36.08a2.2,2.2,0,0,1,.34.56c-4.24,1.61-8.54,3-12.62,4.85-5.55,2.52-11,5.36-16.37,8.17a4.22,4.22,0,0,0-1.76,2.11,523.3,523.3,0,0,0-29.13,101.72c-3.86,21.71-6.38,43.59-8.12,66.16-.78-.91-1.27-1.47-1.74-2-15.86-19.77-25.51-42.48-31.67-66.85a340.14,340.14,0,0,1-9.42-60.83c-1.1-16.7-2-33.45-2.23-50.19-.2-17.55.58-35.12.94-52.69A14.89,14.89,0,0,1,504.61,277.58Z"/><path class="cls-4" d="M679.5,328.3c-2.18-.44-3.89-.79-5.59-1.11a133.15,133.15,0,0,0-48.87.11,3.33,3.33,0,0,1-2.6-.85,273.44,273.44,0,0,0-49.57-43.88l-2.4-1.66c3.36-.6,6.15-1.25,9-1.57a96.53,96.53,0,0,1,42.24,4.91c23.48,8,42.15,22.4,56.73,42.31C678.7,327,678.94,327.4,679.5,328.3Z"/></g></g></svg>